<?xml version="1.0" encoding="UTF-8" standalone="no"?>
<svg
   xmlns:dc="http://purl.org/dc/elements/1.1/"
   xmlns:cc="http://creativecommons.org/ns#"
   xmlns:rdf="http://www.w3.org/1999/02/22-rdf-syntax-ns#"
   xmlns:svg="http://www.w3.org/2000/svg"
   xmlns="http://www.w3.org/2000/svg"
   id="svg12"
   preserveAspectRatio="xMidYMid meet"
   viewBox="0 0 495 504.18051"
   height="504.18051pt"
   width="495pt"
   version="1.0">
  <defs
     id="defs16" />
  <metadata
     id="metadata2">
Created by potrace 1.15, written by Peter Selinger 2001-2017
<rdf:RDF>
  <cc:Work
     rdf:about="">
    <dc:format>image/svg+xml</dc:format>
    <dc:type
       rdf:resource="http://purl.org/dc/dcmitype/StillImage" />
  </cc:Work>
</rdf:RDF>
</metadata>
  <g
     style="fill:#000000;stroke:none"
     id="g10"
     transform="matrix(0.1,0,0,-0.1,-8,508.68051)">
    <path
       id="path4"
       d="M 2455,5083 C 2408,5071 134,4004 109,3982 c -36,-30 -37,-65 -5,-95 14,-12 546,-265 1183,-562 l 1158,-540 h 110 110 l 1158,540 c 637,297 1169,550 1183,562 32,30 31,65 -5,95 -15,13 -547,267 -1182,563 l -1154,539 -95,2 c -52,2 -104,0 -115,-3 z" />
    <path
       id="path6"
       d="m 639,2859 c -53,-10 -503,-218 -536,-248 -13,-11 -23,-31 -23,-46 0,-15 10,-35 23,-46 12,-11 544,-264 1182,-562 l 1160,-542 h 110 110 l 1160,542 c 638,298 1170,551 1183,562 12,11 22,31 22,46 0,15 -10,35 -22,46 -13,11 -129,70 -258,130 -262,122 -322,140 -427,121 -43,-7 -274,-111 -858,-384 l -800,-373 h -110 -110 l -799,373 c -473,221 -819,377 -849,383 -58,11 -94,10 -158,-2 z" />
    <path
       id="path8"
       d="m 645,1494 c -43,-7 -513,-225 -541,-251 -31,-28 -31,-68 0,-96 14,-12 546,-265 1183,-562 L 2445,45 h 110 110 l 1158,540 c 637,297 1169,550 1183,562 31,28 31,68 0,96 -13,12 -136,74 -272,137 l -249,115 -95,-1 c -115,0 -18,41 -980,-410 L 2665,735 h -110 -110 l -745,349 c -410,192 -775,362 -812,377 -68,29 -174,43 -243,33 z" />
  </g>
</svg>
