<?xml version="1.0" standalone="no"?>
<!DOCTYPE svg PUBLIC "-//W3C//DTD SVG 20010904//EN"
 "http://www.w3.org/TR/2001/REC-SVG-20010904/DTD/svg10.dtd">
<svg version="1.0" xmlns="http://www.w3.org/2000/svg"
 width="512.000000pt" height="512.000000pt" viewBox="0 0 512.000000 512.000000"
 preserveAspectRatio="xMidYMid meet">
<metadata>
Created by potrace 1.15, written by Peter Selinger 2001-2017
</metadata>
<g transform="translate(0.000000,512.000000) scale(0.100000,-0.100000)"
fill="#000000" stroke="none">
<path d="M2455 5083 c-47 -12 -2321 -1079 -2346 -1101 -36 -30 -37 -65 -5 -95
14 -12 546 -265 1183 -562 l1158 -540 110 0 110 0 1158 540 c637 297 1169 550
1183 562 32 30 31 65 -5 95 -15 13 -547 267 -1182 563 l-1154 539 -95 2 c-52
2 -104 0 -115 -3z"/>
<path d="M639 2859 c-53 -10 -503 -218 -536 -248 -13 -11 -23 -31 -23 -46 0
-15 10 -35 23 -46 12 -11 544 -264 1182 -562 l1160 -542 110 0 110 0 1160 542
c638 298 1170 551 1183 562 12 11 22 31 22 46 0 15 -10 35 -22 46 -13 11 -129
70 -258 130 -262 122 -322 140 -427 121 -43 -7 -274 -111 -858 -384 l-800
-373 -110 0 -110 0 -799 373 c-473 221 -819 377 -849 383 -58 11 -94 10 -158
-2z"/>
<path d="M645 1494 c-43 -7 -513 -225 -541 -251 -31 -28 -31 -68 0 -96 14 -12
546 -265 1183 -562 l1158 -540 110 0 110 0 1158 540 c637 297 1169 550 1183
562 31 28 31 68 0 96 -13 12 -136 74 -272 137 l-249 115 -95 -1 c-115 0 -18
41 -980 -410 l-745 -349 -110 0 -110 0 -745 349 c-410 192 -775 362 -812 377
-68 29 -174 43 -243 33z"/>
</g>
</svg>
